<svg width="90" height="95" viewBox="0 0 90 95" fill="none" xmlns="http://www.w3.org/2000/svg">
<path d="M28.7 61.8C27.7 60.9 24.5 59.8 14.5 57.5C15 62 15 67.5 15 72.2C15 79.1 14.3 87.5 14.3 90.2C14.3 93.7 15.1 94.1 19 94.1C24.2 94.1 26.8 92.7 26.8 88V87.5H59.9V88.8C59.9 92.2 60.6 93.1 65 93.1C71.4 93.1 73.6 91.3 73.6 88.2C73.6 85.7 72.9 79.2 72.9 72.6V68.8C75.5 66.5 75.7 66.3 75.7 65.3C75.7 64.3 75.5 63.8 70.7 60.3C66.1 57 65.6 56.8 64.4 56.8C63.3 56.8 62.9 57 58.7 61.8H28.7ZM26.8 85.5V75.5H59.9V85.5H26.8ZM59.9 73.5H26.8V65.4C27.9 64.8 28.5 64.3 28.8 63.8H59.9V73.5ZM47.7 52.3V44H79.8C80.5 44 80.9 43.7 80.9 43.1C80.9 42.4 80.7 42 77 38.6C73.8 35.6 73.4 35.5 72.7 35.5C72.4 35.5 72.1 35.6 71.8 35.8C72.4 35.1 72.7 34.2 72.7 33.1C72.7 31.7 72.4 28.3 72.3 23.7H87.9C88.6 23.7 89 23.5 89 22.6C89 21.9 88.8 21.6 85.5 18.4C81.4 14.4 81.1 14.3 80.2 14.3C79.3 14.3 79 14.5 73.5 21.7H72.3V17.2C74.8 15.1 74.9 14.9 74.9 14.1C74.9 13.2 74.5 12.7 70.9 9.8C66.9 6.5 66.3 6.4 65.3 6.4C64.4 6.4 64 6.6 59.6 11.6H47.7V7C51.1 5.79999 51.6 4.89999 51.6 3.8C51.6 2.09999 49.5 0.999997 34.7 0.0999963C35.3 5 35.3 7.19999 35.3 11.6H23C20 11.6 15.5 11.4 10.6 10.9L11.5 14.3C16.3 13.7 20.6 13.6 23 13.6H35.3V21.7H13C10 21.7 5.5 21.5 0.6 21L1.5 24.4C6.3 23.8 10.6 23.7 13 23.7H35.3V32.3H22.6C19.6 32.3 15.1 32.1 10.2 31.6L11.1 35C15.9 34.4 20.2 34.3 22.6 34.3H35.3V42H18.3C15.2 42 11.6 41.8 6.4 41.3L7.4 44.7C12.1 44.2 15.5 44 18.3 44H35.3V52.3H12.4C9.4 52.3 4.9 52.1 2.38419e-07 51.6L0.900001 55C5.7 54.4 10 54.3 12.4 54.3H88.6C89.3 54.3 89.6 53.9 89.6 53.3C89.6 52.6 89.4 52.1 86 49.1C81.7 45.3 81.3 45.1 80.4 45.1C79.5 45.1 79.2 45.4 73.7 52.3H47.7ZM47.7 34.3H60.8C60.8 37.4 61.4 37.7 65.1 37.7C68.1 37.7 70 37.2 71.2 36.3C70.4 37.2 69 38.8 66.4 42H47.7V34.3ZM47.7 23.7H60.8V32.3H47.7V23.7ZM47.7 13.6H60.8V21.7H47.7V13.6Z" fill="#0f0f0f"/>
</svg>
