<svg xmlns="http://www.w3.org/2000/svg" id="Layer_1" data-name="Layer 1" viewBox="0 0 377.5400085449219 224.23001098632812" style="opacity: 1; box-shadow: none; border-radius: 0px;" preserveAspectRatio="xMidYMid meet" fill="#f15a24" fill-opacity="1" role="img"><path d="M55.45,177V126H88.2v50.74c0,23.59-7.67,47.49-39.82,47.49H41C7.37,224.18,0,200,0,177.87V44C0,21.53,9.73,0,39.82,0h7.67C84.07,0,88.2,24.19,88.2,45.72V85H55.45V46.31c0-9.44-3-14.45-11.2-14.45S33.92,36.58,33.92,46.31V176.69c0,9.73,3.25,15,10.62,15C52.5,191.73,55.45,185.83,55.45,177Z"></path><path d="M145.71,224.18h-5.9c-29.5,0-41.59-18.88-41.59-50.44V2.06h33.92V175.8c0,9.44,3.24,15.63,10.62,15.63,8,0,10.91-5.9,10.91-15.63V2.06h33.92V173.74C187.59,204.71,175.2,224.18,145.71,224.18Z"></path><path d="M199.38,2.06h52.51c27.73,0,35.1,14.46,35.1,35.7V71.38c0,18.29-8,27.14-16.52,30.38,8.85,2.95,19.17,10.33,19.17,32.16V181.4c0,23.31-10.32,40.12-35.39,40.12H199.38Zm33.34,29.8V88.79h10c8.84,0,11.5-6.2,11.5-15.34V45.72c0-8.85-2.36-13.86-11.5-13.86Zm0,89.67v69h10c10.61,0,13-5,13-14.75V135.69c0-9.15-2.36-14.16-13-14.16Z"></path><path d="M375.77,2.06V33.92H333.29V91.44h33.34v33.33H333.29v63.42h44.25v33.33H300V2.06Z"></path></svg>