<svg width="86" height="89" viewBox="0 0 86 89" fill="none" xmlns="http://www.w3.org/2000/svg">
<path d="M46.4 18.3C46.1 18.7 45.9 19.3 45.9 19.9C45.8 20.8 45.8 21.8 45.8 22.8C45.8 24.6 45.9 26.3 45.9 27C45.9 35.1 49.8 36.4 60.8 36.4C69.2 36.4 75 35.5 76.7 29.4C76.9 29.4 77.2 29.4 77.4 29.4C81.7 29.4 82.5 26.6 82.5 22.8C82.5 22 82.5 21.3 82.4 20.1C82.2 13.5 76.1 10.7 70.7 10.6C63.3 10.5 55.9 10.4 48.4 10.4V6C48.4 2.6 45.8 0.899996 43.2 0.899996C40.6 0.899996 38 2.6 38 6V10.4C30.1 10.4 22.3 10.5 14.5 10.6C4.6 10.7 3.8 17.5 3.8 23.8C3.8 27.6 3.9 31.2 8.6 31.2C11 31.2 13.4 29.7 13.4 27V26.9C13.4 22.9 13.4 22.9 13.4 22.9C13.6 18.4 14.4 18.3 31.3 18.3C31 18.5 30.7 18.8 30.5 19.1C25.4 26.5 16.4 31.3 10.3 32.6C8.3 33 7.4 34.5 7.4 36.1C7.4 38.3 9.1 40.7 11.9 40.7C18.3 40.7 38.2 27.1 38.2 21.7C38.2 20.3 37.3 19 36.2 18.3H46.4ZM80.8 83.2C83.3 83.2 85.9 80.9 85.9 78C85.9 72.9 73.4 63.6 69.6 63.6C67 63.6 64.9 65.6 64.9 67.7C64.9 68.9 65.5 70 66.9 71C70 73.1 74.3 76.6 77.1 81C78.1 82.6 79.4 83.2 80.8 83.2ZM64.5 51.8C65.5 52.9 66.4 54 67.2 55.1C68.3 56.7 69.7 57.3 71 57.3C73.5 57.3 75.7 55.1 75.7 52.3C75.7 51.2 75.3 49.9 74.3 48.7C70.5 44 59.4 36.4 55.6 36.4C53.1 36.4 51.2 38.4 51.2 40.4C51.2 41.4 51.8 42.5 53.1 43.2C54.4 44 55.9 44.8 57.4 45.9C50.3 46.6 43.3 47.1 36 47.4C39.7 41.2 42.5 36.6 42.5 34.8C42.5 32 39.8 30.2 37.2 30.2C35.5 30.2 33.9 31 33.2 33C32.3 35.6 28.3 44.1 26.3 47.8C23.2 47.9 20.1 48 16.8 48.1C14.2 48.1 12.9 50.1 12.9 52.1C12.9 54.2 14.4 56.5 17.5 56.5C21.2 56.5 44.3 55.1 64.5 51.8ZM49.1 71.7C51.5 71.7 53.9 69.3 53.9 66.6C53.9 61 41.2 56.7 39.7 56.7C37 56.7 34.8 59 34.8 61.1C34.8 62.3 35.5 63.4 37 64.1C39.9 65.4 43.4 67.4 46.1 70.3C47 71.3 48.1 71.7 49.1 71.7ZM65.8 75C65.8 72.6 63.1 71.1 60.5 71.1C58.3 71.1 56.2 72.2 56.2 74.8C56.2 79.4 52.8 80.2 43.5 80.2C37.5 80.2 33.5 80.1 33.3 75.9C33.3 74.8 33.4 69.3 33.4 67.1C33.4 64.4 31 62.9 28.7 62.9C26.4 62.9 24.1 64.2 23.9 67.2C23.9 67.6 23.8 68.3 23.8 76.9C23.8 86 28.6 88.3 43.3 88.3C59.8 88.3 65.8 85.9 65.8 75ZM21.4 69.8C21.4 67.3 18.9 65.3 16.5 65.3C15 65.3 13.6 66 12.7 67.9C11.2 71.1 5.7 76 3.2 77C1.2 77.8 0.4 79.4 0.4 81C0.4 83.4 2.3 85.9 5.3 85.9C11.8 85.9 21.4 73.2 21.4 69.8ZM72.5 23.6C70.5 23.6 68.7 24.5 68.7 26.6C68.7 28.4 67 29.2 60.7 29.2C55.2 29.2 54.4 28.6 54.3 26.2C54.3 25.2 54.4 22.3 54.4 19.8C54.4 19.3 54.2 18.8 54 18.4C58.6 18.4 63.1 18.4 67.1 18.5C71 18.6 72.3 19.3 72.5 22.6V23.6Z" fill="#0f0f0f"/>
</svg>
