<svg xmlns="http://www.w3.org/2000/svg" id="Layer_1" data-name="Layer 1" viewBox="0 0 343.6199951171875 224.17999267578125" style="box-shadow: none; border-radius: 0px; opacity: 1;" preserveAspectRatio="xMidYMid meet" fill="#ffd400" fill-opacity="1" role="img"><path d="M0,53.39V26.25c19.76-1.18,26-6.78,29.2-24.19H56V221.52H22.42V53.39Z"></path><path d="M92.32,142.76c-15.93,0-24.78-16.51-24.78-30.67V41.3c0-23,10.33-41.3,40.71-41.3H115c30.68,0,40.41,18,40.41,41.3V185.83c0,22.12-12.09,38.35-38.34,38.35h-7.38c-28.61,0-38.34-15.34-38.34-38.06v-28.9h34.51V182c0,5.31,1.18,11.21,8.26,11.21,6.19,0,7.37-5.9,7.37-11.21V123.3c-5,7.08-14.75,19.46-28.32,19.46Zm19.17-111.2c-8.55,0-9.73,7.38-9.73,13.57V98.52c0,9.14,2.95,13.86,9.73,13.86,7.38,0,10-5,10-13.27v-54C121.52,38.05,120.05,31.56,111.49,31.56Z"></path><path d="M253.66,221.52H162.81V205c0-28.61,4.42-42.77,25.66-79.93l19.17-33.92c9.15-16.23,9.44-23,9.44-33.63V43.36c0-8.26-3-11.5-8.55-11.5-6.19,0-8.26,3.24-8.26,11.5V80.82H168.41V40.71C168.41,19.76,177,0,204.7,0h6.78c24.78,0,40.7,11.21,40.7,40.71V51.62c0,25.66-1.18,36-19.46,63.42-5.9,8.85-14.75,20.65-21.24,30.08-19.76,28.32-20.94,36.28-20.94,45.13H220V148.07h33.63Z"></path><path d="M343.62,2.06V34.22l-12.09,69.9c-7.38,42.48-9.74,78.17-9.74,92.62v24.78H281.38V200c0-15.64,2.95-37.46,15.93-80.82C316.48,54.57,318,41,318,32.15H292.59V67H261V2.06Z"></path></svg>