<svg width="29" height="31" viewBox="0 0 29 31" fill="none" xmlns="http://www.w3.org/2000/svg">
<path d="M11.6 30.4C10.5 30.4 9.50003 29.8 8.90003 28.8L0.700035 12.8C3.5435e-05 11.2 0.600035 9.4 2.00004 8.7L11.2 4L12.1 5.8L3.00004 10.5C2.50004 10.7 2.30004 11.4 2.60004 11.8L10.8 27.8C11 28.3 11.7 28.5 12.1 28.2L22.8 22.8L23.7 24.6L12.9 30C12.5 30.3 12 30.4 11.6 30.4Z" fill="white"/>
<path d="M25.6 24.6H13.6C11.9 24.6 10.6 23.3 10.6 21.6V3.59998C10.6 1.89998 11.9 0.599976 13.6 0.599976H25.6C27.3 0.599976 28.6 1.89998 28.6 3.59998V21.6C28.6 23.3 27.3 24.6 25.6 24.6ZM13.6 2.59998C13 2.59998 12.6 2.99998 12.6 3.59998V21.6C12.6 22.2 13 22.6 13.6 22.6H25.6C26.2 22.6 26.6 22.2 26.6 21.6V3.59998C26.6 2.99998 26.2 2.59998 25.6 2.59998H13.6V2.59998Z" fill="white"/>
<path d="M19.6 6.5C20.1523 6.5 20.6 6.05228 20.6 5.5C20.6 4.94772 20.1523 4.5 19.6 4.5C19.0477 4.5 18.6 4.94772 18.6 5.5C18.6 6.05228 19.0477 6.5 19.6 6.5Z" fill="white"/>
</svg>
